<svg width="800" height="480" viewBox="0 0 800 480" fill="none" xmlns="http://www.w3.org/2000/svg">
  <defs>
    <linearGradient id="bg" x1="0" y1="0" x2="800" y2="480"><stop offset="0%" stop-color="#FAF5FF"/><stop offset="100%" stop-color="#F3E8FF"/></linearGradient>
  </defs>
  <rect width="800" height="480" fill="url(#bg)"/>
  <!-- Main window -->
  <rect x="120" y="50" width="560" height="380" rx="12" fill="white" stroke="#D8B4FE" stroke-width="2"/>
  <rect x="120" y="50" width="560" height="36" rx="12" fill="#F3E8FF"/>
  <circle cx="144" cy="68" r="6" fill="#FCA5A5"/><circle cx="164" cy="68" r="6" fill="#FCD34D"/><circle cx="184" cy="68" r="6" fill="#86EFAC"/>
  <!-- Event header -->
  <rect x="140" y="100" width="520" height="100" rx="8" fill="#7C3AED"/>
  <text x="160" y="135" font-family="Arial" font-size="22" font-weight="bold" fill="white">Nairobi Tech Summit 2026</text>
  <text x="160" y="160" font-family="Arial" font-size="12" fill="rgba(255,255,255,0.8)">March 25, 2026 - KICC, Nairobi - 9:00 AM - 6:00 PM</text>
  <rect x="160" y="172" width="90" height="22" rx="4" fill="rgba(255,255,255,0.2)"/><text x="175" y="187" font-family="Arial" font-size="9" fill="white">450 / 500 sold</text>
  <rect x="560" y="125" width="80" height="36" rx="8" fill="white"/><text x="575" y="148" font-family="Arial" font-size="12" font-weight="bold" fill="#7C3AED">Buy Ticket</text>
  <!-- Ticket types -->
  <text x="155" y="230" font-family="Arial" font-size="12" font-weight="bold" fill="#374151">Select Ticket</text>
  <rect x="140" y="240" width="165" height="80" rx="8" fill="#FAF5FF" stroke="#D8B4FE" stroke-width="1"/>
  <text x="155" y="262" font-family="Arial" font-size="11" font-weight="bold" fill="#374151">Regular</text>
  <text x="155" y="280" font-family="Arial" font-size="18" font-weight="bold" fill="#7C3AED">KES 2,500</text>
  <text x="155" y="308" font-family="Arial" font-size="9" fill="#6B7280">General admission - Lunch included</text>
  <rect x="318" y="240" width="165" height="80" rx="8" fill="#FAF5FF" stroke="#7C3AED" stroke-width="2"/>
  <rect x="400" y="235" width="60" height="16" rx="3" fill="#7C3AED"/><text x="415" y="246" font-family="Arial" font-size="8" fill="white">POPULAR</text>
  <text x="333" y="262" font-family="Arial" font-size="11" font-weight="bold" fill="#374151">VIP</text>
  <text x="333" y="280" font-family="Arial" font-size="18" font-weight="bold" fill="#7C3AED">KES 5,000</text>
  <text x="333" y="308" font-family="Arial" font-size="9" fill="#6B7280">Front row - Networking dinner</text>
  <rect x="496" y="240" width="165" height="80" rx="8" fill="#FAF5FF" stroke="#D8B4FE" stroke-width="1"/>
  <text x="511" y="262" font-family="Arial" font-size="11" font-weight="bold" fill="#374151">Corporate</text>
  <text x="511" y="280" font-family="Arial" font-size="18" font-weight="bold" fill="#7C3AED">KES 15,000</text>
  <text x="511" y="308" font-family="Arial" font-size="9" fill="#6B7280">Table of 5 - Branded booth</text>
  <!-- Speakers -->
  <text x="155" y="355" font-family="Arial" font-size="12" font-weight="bold" fill="#374151">Featured Speakers</text>
  <circle cx="175" cy="390" r="20" fill="#E9D5FF"/>
  <text x="200" y="386" font-family="Arial" font-size="10" font-weight="bold" fill="#374151">Dr. Amani Karanja</text>
  <text x="200" y="400" font-family="Arial" font-size="9" fill="#6B7280">AI &amp; Machine Learning</text>
  <circle cx="415" cy="390" r="20" fill="#E9D5FF"/>
  <text x="440" y="386" font-family="Arial" font-size="10" font-weight="bold" fill="#374151">James Ochieng</text>
  <text x="440" y="400" font-family="Arial" font-size="9" fill="#6B7280">FinTech Innovation</text>
</svg>